<svg id="Layer_1" data-name="Layer 1" xmlns="http://www.w3.org/2000/svg" xmlns:xlink="http://www.w3.org/1999/xlink" viewBox="0 0 469 352"><defs><style>.cls-1,.cls-2,.cls-3{fill-rule:evenodd;}.cls-1{fill:url(#linear-gradient);}.cls-2{fill:url(#linear-gradient-2);}.cls-3{fill:url(#linear-gradient-3);}</style><linearGradient id="linear-gradient" x1="253.35" y1="345.65" x2="152.28" y2="31.73" gradientUnits="userSpaceOnUse"><stop offset="0" stop-color="#292d95"/><stop offset="0.64" stop-color="#0083e8"/><stop offset="1" stop-color="#0083e8"/></linearGradient><linearGradient id="linear-gradient-2" x1="137.51" y1="97.67" x2="18.06" y2="356.46" xlink:href="#linear-gradient"/><linearGradient id="linear-gradient-3" x1="404.37" y1="-13.44" x2="156.29" y2="478.12" xlink:href="#linear-gradient"/></defs><path class="cls-1" d="M99.2,93.94c12.31-12.65,25.26-12.72,34.22-8,22,11.61,26.33,47.25,28.48,72.76,1.71,20.37,4.37,38.19,7.72,58.12,3.65,21.73,7.58,61.29,13.63,79.53a35.32,35.32,0,0,0,19.59,22c28.81,13.52,94.3,23.75,111-12-12.3,12.66-25.26,12.73-34.22,8-22-11.61-26.34-47.26-28.48-72.76-1.71-20.37-4.37-38.19-7.72-58.13-3.64-21.72-7.58-61.29-13.63-79.53a35.36,35.36,0,0,0-19.6-22C181.36,68.4,115.87,58.17,99.2,93.94Z"/><path class="cls-2" d="M161.15,150.56c-16.36,33.09-38.41,76.52-54.36,108.86a8.22,8.22,0,0,1-.73,2.25L86.82,300.38a8.24,8.24,0,0,1-11,3.74h0a8.21,8.21,0,0,1-3.72-10.95c8.28-16.64,15.79-32.5,24-49a8.21,8.21,0,0,0-3.71-10.94h0a8.23,8.23,0,0,0-11,3.73q-13.64,27.45-27.27,54.91a8.24,8.24,0,0,1-11,3.74h0a8.21,8.21,0,0,1-3.71-11C47,269.22,54.57,253.9,62.26,238.44a8.21,8.21,0,0,0-3.72-10.95h0a8.24,8.24,0,0,0-11,3.74c-6.36,12.8-12.76,25-19.07,37.69-2,4-6.55,4.41-11,3.74h0c-4.46-.67-5.72-6.91-3.71-11l4.55-9.16-.24,0c23.72-48.82,31.84-65.75,56.68-114,6.66-12.94,14.08-29.26,22.08-41,1.13-1.66,2.31-3.21,3.51-4.65,12-11.54,24.42-11.47,33.1-6.89C153.19,96.35,158.68,126.13,161.15,150.56Zm-146.54,135L3.4,308.09a8.22,8.22,0,0,0,3.71,11h0a8.24,8.24,0,0,0,11-3.74l11.21-22.56a8.22,8.22,0,0,0-3.71-10.95h0A8.24,8.24,0,0,0,14.61,285.54ZM24,321.78l-8.29,16.68a8.21,8.21,0,0,0,3.71,11h0a8.24,8.24,0,0,0,11-3.74L38.72,329A8.2,8.2,0,0,0,35,318.05h0A8.23,8.23,0,0,0,24,321.78Zm29.17-17.84-4.6,9.25a8.21,8.21,0,0,0,3.71,10.95h0a8.25,8.25,0,0,0,11-3.74l4.6-9.26a8.2,8.2,0,0,0-3.71-10.94h0A8.23,8.23,0,0,0,53.17,303.94Z"/><path class="cls-3" d="M332.24,87.61,284,80.39,466.44,1.74C421.93,92.91,381.75,181.3,332.08,270a9.05,9.05,0,0,1-11.54,3.18c-2.87-1.55-5.81-5.5-2.86-11.07L343,214.45c3.32-6.27,1.1-10.74-2.18-12.72-3.72-2.23-9-1.19-12.65,5.71L302,256.68c-7.9,14.91-21.38,6.24-14.85-6.83,9.55-19.09,19.62-38.37,29.78-57.54,7.06-13.34-7.64-20.6-14.83-7l-18,34c-2,3.83-6.41,6.34-9.8,5.92-4.63-.59-7.85-5.75-4.63-12.25C290.49,171.12,311.44,129.41,332.24,87.61ZM266.05,238.94l-4.6,9.25a8.21,8.21,0,0,0,3.71,10.95h0a8.23,8.23,0,0,0,11-3.74l4.6-9.25a8.2,8.2,0,0,0-3.71-11h0A8.23,8.23,0,0,0,266.05,238.94Zm27.85,35.15-11.21,22.56a8.19,8.19,0,0,0,3.72,10.94h0a8.24,8.24,0,0,0,11-3.73l11.21-22.56a8.21,8.21,0,0,0-3.72-10.95h0A8.24,8.24,0,0,0,293.9,274.09Z"/></svg>